# xmcd
#
# Track frame offsets:
#	150
#	10282
#	23622
#	42437
#	55637
#	65987
#	78310
#	89702
#	103372
#	114237
#	129617
#	137930
#
# Disc length: 2024 seconds
#
# Revision: 0
# Processed by: cddbd v1.5.2PL0 Copyright (c) Steve Scherf et al.
# Submitted via: audiograbber 1.83.01
#
DISCID=a807e60c
DTITLE=Sampler Country - Songs of the Stanley Brothers
DYEAR=1900
DGENRE=Country
TTITLE0=Jim and Jesse - Long journey home
TTITLE1=Skaggs, Ricky - Say, won't you be mine
TTITLE2=Furtado, Tony and Tim O'Brien - Man of constant sorrow
TTITLE3=Dry Branch Fire Squad - The girl behind the bar
TTITLE4=Grisman, David and The Nashville Bluegrass Band - If I lose
TTITLE5=Johnson Mountain Boys - Harbor of love
TTITLE6=Munde, Alan - Clinch mountain backstep
TTITLE7=Val, Joe and New England Bluegrass Boys - Vision of mother
TTITLE8=Boyens, Phyllis and Hazel Dickens with The Dreadful Snakes - Dream of a m
TTITLE8=iner's child
TTITLE9=Jim and Jesse and Ricky Skaggs - The white dove
TTITLE10=Williams, Vern - You better get right
TTITLE11=Hot Rize - Rank strangers to me
EXTD=
EXTT0=
EXTT1=
EXTT2=
EXTT3=
EXTT4=
EXTT5=
EXTT6=
EXTT7=
EXTT8=
EXTT9=
EXTT10=
EXTT11=
PLAYORDER=
